<svg xmlns="http://www.w3.org/2000/svg" width="90" height="80" viewBox="-31.5 -30 90 80"><path fill="#C7C7C7" d="M13.553 50C3.315 50-6.313 45.523-12.872 37.68-25.083 23.117-23.185 1.319-8.626-10.89c6.215-5.195 14.066-8.076 22.14-8.076 10.237 0 19.866 4.474 26.424 12.322 5.913 7.053 8.758 16 7.96 25.176-.793 9.176-5.117 17.477-12.167 23.43C29.512 47.117 21.625 50 13.553 50zm-.039-65.971A31.642 31.642 0 0 0-6.732-8.616C-20.04 2.568-21.748 22.438-10.599 35.742a31.432 31.432 0 0 0 24.113 11.227c7.392 0 14.557-2.617 20.245-7.36 6.445-5.382 10.39-12.999 11.108-21.382.719-8.379-1.859-16.529-7.242-22.975-5.992-7.129-14.75-11.223-24.111-11.223zm.039-8.57a1.524 1.524 0 0 1-1.519-1.516v-2.426c0-.836.688-1.518 1.519-1.518s1.515.682 1.515 1.518v2.463c-.035.834-.683 1.479-1.515 1.479zM27.806-22c-.188 0-.341-.037-.532-.076-.757-.266-1.171-1.137-.906-1.934l.832-2.313c.266-.758 1.138-1.176 1.934-.91.759.266 1.177 1.137.911 1.934l-.832 2.313a1.55 1.55 0 0 1-1.407.986zm12.475 7.242c-.343 0-.684-.115-.949-.342a1.503 1.503 0 0 1-.191-2.123l1.595-1.896c.53-.645 1.479-.719 2.125-.189.644.531.718 1.479.187 2.123l-1.593 1.896c-.302.342-.72.531-1.174.531zm9.289 11.11a1.436 1.436 0 0 1-1.288-.76c-.418-.719-.152-1.629.57-2.047l2.155-1.213a1.498 1.498 0 0 1 2.048.568c.422.721.156 1.631-.565 2.047l-2.161 1.215c-.226.113-.492.19-.759.19zm4.891 13.611c-.718 0-1.367-.531-1.477-1.252-.156-.796.414-1.591 1.211-1.744l2.427-.418c.796-.15 1.593.418 1.745 1.215.148.795-.418 1.592-1.215 1.744l-2.426.416c-.078.039-.19.039-.265.039zm2.391 14.9c-.077 0-.19 0-.266-.039l-2.429-.457a1.5 1.5 0 0 1-1.212-1.742c.148-.797.907-1.367 1.743-1.211l2.429.453a1.51 1.51 0 0 1 1.212 1.742 1.505 1.505 0 0 1-1.477 1.254zm-5.313 14.371c-.266 0-.531-.078-.757-.23l-2.161-1.25a1.485 1.485 0 0 1-.531-2.047 1.489 1.489 0 0 1 2.051-.531l2.121 1.25c.723.418.949 1.328.531 2.051-.23.492-.723.757-1.254.757z"/><path fill="#8D81AC" d="M-24.818 38.625a1.441 1.441 0 0 1-1.289-.758c-.414-.719-.148-1.633.57-2.047l2.16-1.212c.723-.421 1.628-.156 2.046.567.418.723.153 1.629-.566 2.047l-2.164 1.215c-.265.11-.491.188-.757.188zm-5.078-14.485c-.722 0-1.367-.53-1.48-1.25-.113-.796.418-1.593 1.215-1.702l2.425-.422c.793-.109 1.59.422 1.708 1.215.113.797-.418 1.594-1.215 1.707l-2.426.414c-.078.038-.152.038-.227.038zm2.618-14.861c-.078 0-.191 0-.266-.037l-2.43-.455c-.796-.152-1.363-.949-1.21-1.744a1.501 1.501 0 0 1 1.742-1.213l2.43.455c.793.15 1.359.947 1.211 1.744-.153.758-.759 1.25-1.477 1.25zm5.116-13.535a1.37 1.37 0 0 1-.758-.227l-2.125-1.252c-.719-.418-.946-1.365-.532-2.047.418-.721 1.368-.949 2.047-.531l2.125 1.25c.719.418.945 1.365.531 2.049-.264.532-.756.758-1.288.758zm9.477-10.92a1.52 1.52 0 0 1-1.172-.568l-1.554-1.934a1.505 1.505 0 0 1 .226-2.123c.641-.531 1.594-.418 2.122.227l1.554 1.934c.532.645.418 1.594-.226 2.123a1.618 1.618 0 0 1-.95.341z"/><path fill="#C7C7C7" d="M-.06-22.229c-.605 0-1.211-.379-1.402-1.023l-.793-2.35c-.266-.758.148-1.631.906-1.896s1.632.152 1.898.91l.797 2.352a1.513 1.513 0 0 1-.914 1.895 1.3 1.3 0 0 1-.492.112z"/><path fill="#8D81AC" d="M1.421 2.568c-.418 0-.832-.189-1.137-.531l-3.945-4.701a1.503 1.503 0 0 1 .191-2.123 1.502 1.502 0 0 1 2.121.189L2.596.103a1.51 1.51 0 0 1-.187 2.126 1.656 1.656 0 0 1-.988.339z"/><path fill="#FFF" d="M15.182 24.824c-5.156.91-10.046-2.539-10.956-7.66-.91-5.156 2.542-10.045 7.66-10.955 5.154-.91 10.045 2.539 10.954 7.658.911 5.156-2.543 10.047-7.658 10.957z"/><path fill="#C7C7C7" d="M13.514 26.453A10.913 10.913 0 0 1 2.745 17.39a11.022 11.022 0 0 1 1.82-8.188c1.672-2.389 4.172-3.98 7.055-4.512.644-.113 1.25-.15 1.894-.15 5.346 0 9.857 3.828 10.767 9.061a10.999 10.999 0 0 1-1.82 8.188c-1.668 2.391-4.171 3.984-7.052 4.516-.606.113-1.25.148-1.895.148zm.039-18.879c-.457 0-.91.037-1.402.113a8.05 8.05 0 0 0-5.156 3.26c-1.215 1.744-1.708 3.83-1.328 5.951.68 3.832 3.945 6.602 7.813 6.602.452 0 .905-.039 1.397-.117a8.056 8.056 0 0 0 5.154-3.258c1.216-1.746 1.711-3.832 1.329-5.953-.679-3.83-3.942-6.598-7.807-6.598z"/></svg>