<?xml version="1.0" encoding="utf-8"?>
<!-- Generator: Adobe Illustrator 15.1.0, SVG Export Plug-In . SVG Version: 6.00 Build 0)  -->
<!DOCTYPE svg PUBLIC "-//W3C//DTD SVG 1.1//EN" "http://www.w3.org/Graphics/SVG/1.1/DTD/svg11.dtd">
<svg version="1.1" id="Layer_1" xmlns="http://www.w3.org/2000/svg" xmlns:xlink="http://www.w3.org/1999/xlink" x="0px" y="0px"
	 width="71px" height="71px" viewBox="-22 -25.5 71 71" enable-background="new -22 -25.5 71 71" xml:space="preserve">
<g>
	<path fill="#C7C7C7" d="M13.5,45.5C-6.084,45.5-22,29.584-22,10s15.916-35.5,35.5-35.5S49-9.584,49,10S33.084,45.5,13.5,45.5z
		 M13.5-22.505C-4.434-22.505-19.005-7.936-19.005,10c0,17.938,14.571,32.505,32.505,32.505S46.008,27.938,46.008,10
		C46.008-7.936,31.402-22.505,13.5-22.505z"/>
	<path fill="#FFFFFF" d="M-14.529,11.515c-0.839,0-1.515-0.674-1.515-1.515c0-16.287,13.26-29.544,29.544-29.544
		c0.843,0,1.515,0.672,1.515,1.515c0,0.841-0.672,1.514-1.515,1.514c-14.637,0-26.549,11.912-26.549,26.548
		C-13.049,10.841-13.721,11.515-14.529,11.515z"/>
	<path fill="#FFFFFF" d="M13.5,39.544c-0.842,0-1.515-0.673-1.515-1.515c0-0.843,0.673-1.516,1.515-1.516
		c14.641,0,26.552-11.911,26.552-26.546c0-0.843,0.673-1.515,1.512-1.515c0.843,0,1.516,0.672,1.516,1.515
		C43.044,26.287,29.787,39.544,13.5,39.544z"/>
	<path fill="#C7C7C7" d="M13.5,11.515c-0.842,0-1.515-0.674-1.515-1.515V-9.651c0-0.841,0.673-1.514,1.515-1.514
		c0.843,0,1.515,0.673,1.515,1.514V10C14.98,10.841,14.343,11.515,13.5,11.515z"/>
	<path fill="#8D81AC" d="M13.5,39.544c-16.284,0-29.544-13.257-29.544-29.544c0-0.841,0.676-1.515,1.515-1.515
		c0.839,0,1.512,0.674,1.512,1.515c0,14.637,11.912,26.549,26.552,26.549c0.842,0,1.515,0.673,1.515,1.515
		C14.98,38.871,14.343,39.544,13.5,39.544z"/>
	<path fill="#8D81AC" d="M41.529,11.515c-0.839,0-1.512-0.674-1.512-1.515c0-14.637-11.912-26.549-26.549-26.549
		c-0.842,0-1.519-0.674-1.519-1.515c0-0.84,0.676-1.513,1.519-1.513c16.287,0,29.544,13.257,29.544,29.544
		C43.044,10.841,42.371,11.515,41.529,11.515z"/>
	<path fill="#8D81AC" d="M13.5,11.515c-0.842,0-1.515-0.674-1.515-1.515V-3.124c0-0.841,0.673-1.513,1.515-1.513
		c0.843,0,1.515,0.672,1.515,1.513V10C14.98,10.841,14.343,11.515,13.5,11.515z"/>
</g>
</svg>
