<?xml version="1.0" encoding="utf-8"?>
<!-- Generator: Adobe Illustrator 15.1.0, SVG Export Plug-In . SVG Version: 6.00 Build 0)  -->
<!DOCTYPE svg PUBLIC "-//W3C//DTD SVG 1.1//EN" "http://www.w3.org/Graphics/SVG/1.1/DTD/svg11.dtd">
<svg version="1.1" id="Layer_1" xmlns="http://www.w3.org/2000/svg" xmlns:xlink="http://www.w3.org/1999/xlink" x="0px" y="0px"
	 width="111px" height="64px" viewBox="41.956 22 111 64" enable-background="new 41.956 22 111 64" xml:space="preserve">
<rect x="43.457" y="23.501" fill="#F9F9F9" width="72.561" height="10.01"/>
<g>
	<g>
		<defs>
			<rect id="SVGID_1_" x="41.956" y="22" width="111" height="64.054"/>
		</defs>
		<clipPath id="SVGID_2_">
			<use xlink:href="#SVGID_1_"  overflow="visible"/>
		</clipPath>
		
			<rect x="43.457" y="23.501" clip-path="url(#SVGID_2_)" fill="none" stroke="#C7C7C7" stroke-width="3.0025" stroke-linejoin="round" stroke-miterlimit="10" width="73.058" height="61.051"/>
	</g>
	<g>
		<defs>
			<rect id="SVGID_3_" x="41.956" y="22" width="111" height="64.054"/>
		</defs>
		<clipPath id="SVGID_4_">
			<use xlink:href="#SVGID_3_"  overflow="visible"/>
		</clipPath>
		
			<line clip-path="url(#SVGID_4_)" fill="none" stroke="#C7C7C7" stroke-width="3.0025" stroke-linejoin="round" stroke-miterlimit="10" x1="42.957" y1="33.512" x2="116.018" y2="33.512"/>
	</g>
	<g>
		<defs>
			<rect id="SVGID_5_" x="41.956" y="22" width="111" height="64.054"/>
		</defs>
		<clipPath id="SVGID_6_">
			<use xlink:href="#SVGID_5_"  overflow="visible"/>
		</clipPath>
		<path clip-path="url(#SVGID_6_)" fill="#C7C7C7" d="M52.017,28.587c0,0.902-0.732,1.632-1.634,1.632
			c-0.905,0-1.637-0.73-1.637-1.632c0-0.904,0.732-1.639,1.637-1.639C51.285,26.948,52.017,27.683,52.017,28.587"/>
	</g>
	<g>
		<defs>
			<rect id="SVGID_7_" x="41.956" y="22" width="111" height="64.054"/>
		</defs>
		<clipPath id="SVGID_8_">
			<use xlink:href="#SVGID_7_"  overflow="visible"/>
		</clipPath>
		<path clip-path="url(#SVGID_8_)" fill="#8D81AC" d="M57.023,28.587c0,0.902-0.735,1.632-1.637,1.632
			c-0.904,0-1.634-0.73-1.634-1.632c0-0.904,0.73-1.639,1.634-1.639C56.288,26.948,57.023,27.683,57.023,28.587"/>
	</g>
	<g>
		<defs>
			<rect id="SVGID_9_" x="41.956" y="22" width="111" height="64.054"/>
		</defs>
		<clipPath id="SVGID_10_">
			<use xlink:href="#SVGID_9_"  overflow="visible"/>
		</clipPath>
		<path clip-path="url(#SVGID_10_)" fill="#C7C7C7" d="M62.024,28.587c0,0.902-0.731,1.632-1.634,1.632
			c-0.905,0-1.636-0.73-1.636-1.632c0-0.904,0.73-1.639,1.636-1.639C61.292,26.948,62.024,27.683,62.024,28.587"/>
	</g>
	<g>
		<defs>
			<rect id="SVGID_11_" x="41.956" y="22" width="111" height="64.054"/>
		</defs>
		<clipPath id="SVGID_12_">
			<use xlink:href="#SVGID_11_"  overflow="visible"/>
		</clipPath>
		
			<rect x="50.464" y="41.517" clip-path="url(#SVGID_12_)" fill="none" stroke="#C7C7C7" stroke-width="3.0025" stroke-linejoin="round" stroke-miterlimit="10" width="24.021" height="16.014"/>
	</g>
	<g>
		<defs>
			<rect id="SVGID_13_" x="41.956" y="22" width="111" height="64.054"/>
		</defs>
		<clipPath id="SVGID_14_">
			<use xlink:href="#SVGID_13_"  overflow="visible"/>
		</clipPath>
		
			<rect x="84.49" y="41.517" clip-path="url(#SVGID_14_)" fill="none" stroke="#C7C7C7" stroke-width="3.0025" stroke-linejoin="round" stroke-miterlimit="10" width="24.022" height="16.014"/>
	</g>
	<g>
		<defs>
			<rect id="SVGID_15_" x="41.956" y="22" width="111" height="64.054"/>
		</defs>
		<clipPath id="SVGID_16_">
			<use xlink:href="#SVGID_15_"  overflow="visible"/>
		</clipPath>
		
			<line clip-path="url(#SVGID_16_)" fill="none" stroke="#8D81AC" stroke-width="3.0025" stroke-linecap="round" stroke-linejoin="round" stroke-miterlimit="10" x1="50.963" y1="66.538" x2="73.981" y2="66.538"/>
	</g>
	<g>
		<defs>
			<rect id="SVGID_17_" x="41.956" y="22" width="111" height="64.054"/>
		</defs>
		<clipPath id="SVGID_18_">
			<use xlink:href="#SVGID_17_"  overflow="visible"/>
		</clipPath>
		
			<line clip-path="url(#SVGID_18_)" fill="none" stroke="#8D81AC" stroke-width="3.0025" stroke-linecap="round" stroke-linejoin="round" stroke-miterlimit="10" x1="50.963" y1="75.542" x2="73.981" y2="75.542"/>
	</g>
	<g>
		<defs>
			<rect id="SVGID_19_" x="41.956" y="22" width="111" height="64.054"/>
		</defs>
		<clipPath id="SVGID_20_">
			<use xlink:href="#SVGID_19_"  overflow="visible"/>
		</clipPath>
		
			<line clip-path="url(#SVGID_20_)" fill="none" stroke="#8D81AC" stroke-width="3.0025" stroke-linecap="round" stroke-linejoin="round" stroke-miterlimit="10" x1="84.992" y1="66.538" x2="108.014" y2="66.538"/>
	</g>
	<g>
		<defs>
			<rect id="SVGID_21_" x="41.956" y="22" width="111" height="64.054"/>
		</defs>
		<clipPath id="SVGID_22_">
			<use xlink:href="#SVGID_21_"  overflow="visible"/>
		</clipPath>
		
			<line clip-path="url(#SVGID_22_)" fill="none" stroke="#8D81AC" stroke-width="3.0025" stroke-linecap="round" stroke-linejoin="round" stroke-miterlimit="10" x1="84.992" y1="75.542" x2="108.014" y2="75.542"/>
	</g>
	<g>
		<defs>
			<rect id="SVGID_23_" x="41.956" y="22" width="111" height="64.054"/>
		</defs>
		<clipPath id="SVGID_24_">
			<use xlink:href="#SVGID_23_"  overflow="visible"/>
		</clipPath>
		<path clip-path="url(#SVGID_24_)" fill="#F9F9F9" d="M151.639,76.14l-9.783-9.786c-0.15-0.145-0.316-0.27-0.479-0.392
			c5.201-8.307,4.213-19.415-3.003-26.632c-4.072-4.063-9.471-6.302-15.216-6.302c-5.752,0-11.15,2.239-15.216,6.302
			c-4.063,4.062-6.3,9.465-6.3,15.216c0,5.755,2.236,11.153,6.3,15.217c4.065,4.063,9.464,6.305,15.216,6.305
			c4.356,0,8.514-1.295,12.041-3.69c0.094,0.115,0.182,0.237,0.285,0.344l9.789,9.787c0.848,0.851,1.977,1.316,3.178,1.316
			c1.207,0,2.333-0.47,3.188-1.316c0.854-0.852,1.316-1.98,1.316-3.185C152.956,78.122,152.493,76.99,151.639,76.14 M123.159,67.057
			c-3.347,0-6.483-1.301-8.845-3.662c-4.883-4.879-4.883-12.814,0-17.696c2.361-2.36,5.498-3.661,8.845-3.661
			c3.34,0,6.48,1.301,8.845,3.661c4.876,4.882,4.876,12.817,0,17.693C129.636,65.756,126.499,67.057,123.159,67.057"/>
	</g>
	<g>
		<defs>
			<rect id="SVGID_25_" x="41.956" y="22" width="111" height="64.054"/>
		</defs>
		<clipPath id="SVGID_26_">
			<use xlink:href="#SVGID_25_"  overflow="visible"/>
		</clipPath>
		<path clip-path="url(#SVGID_26_)" fill="#8D81AC" d="M123.159,73.062c-4.945,0-9.599-1.923-13.096-5.42
			c-7.216-7.225-7.216-18.969,0-26.189c3.497-3.495,8.15-5.422,13.096-5.422c4.944,0,9.599,1.927,13.086,5.422
			c7.222,7.221,7.222,18.965,0,26.189C132.757,71.139,128.103,73.062,123.159,73.062 M123.159,39.033
			c-4.147,0-8.045,1.612-10.975,4.544c-6.046,6.048-6.046,15.886,0,21.94c2.93,2.931,6.827,4.542,10.975,4.542
			c4.138,0,8.035-1.611,10.969-4.542c6.049-6.055,6.049-15.893,0-21.94C131.194,40.646,127.296,39.033,123.159,39.033"/>
	</g>
	<g>
		<defs>
			<rect id="SVGID_27_" x="41.956" y="22" width="111" height="64.054"/>
		</defs>
		<clipPath id="SVGID_28_">
			<use xlink:href="#SVGID_27_"  overflow="visible"/>
		</clipPath>
		<path clip-path="url(#SVGID_28_)" fill="#C7C7C7" d="M147.454,79.824c-0.384,0-0.769-0.145-1.057-0.438l-7.791-7.788
			c-0.582-0.584-0.582-1.535,0-2.114c0.588-0.591,1.539-0.591,2.127,0l7.784,7.775c0.579,0.585,0.579,1.542,0,2.127
			C148.223,79.68,147.842,79.824,147.454,79.824"/>
	</g>
</g>
</svg>
