<?xml version="1.0" encoding="utf-8"?>
<!-- Generator: Adobe Illustrator 15.1.0, SVG Export Plug-In . SVG Version: 6.00 Build 0)  -->
<!DOCTYPE svg PUBLIC "-//W3C//DTD SVG 1.1//EN" "http://www.w3.org/Graphics/SVG/1.1/DTD/svg11.dtd">
<svg version="1.1" id="Layer_1" xmlns="http://www.w3.org/2000/svg" xmlns:xlink="http://www.w3.org/1999/xlink" x="0px" y="0px"
	 width="61px" height="84px" viewBox="-17 -32 61 84" enable-background="new -17 -32 61 84" xml:space="preserve">
<g>
	<polygon fill="#8D81AC" points="-15.123,51.163 42.206,51.163 32.53,30.819 -5.448,30.819 	"/>
	<polygon fill="#FFFFFF" points="8.005,4.028 8.005,8.05 -9.312,46.783 -5.292,46.783 12.025,8.05 12.025,4.028 	"/>
	<path fill="#8D81AC" d="M16.366-0.629c0,1.592-1.273,2.826-2.828,2.826c-1.591,0-2.826-1.273-2.826-2.826
		c0-1.593,1.271-2.826,2.826-2.826C15.134-3.455,16.366-2.182,16.366-0.629z"/>
	<path fill="#C7C7C7" d="M42.206,52h-57.329c-0.521,0-0.997-0.238-1.276-0.677s-0.279-0.956-0.082-1.432L2.55,7.691V-4.253
		c0-0.834,0.64-1.511,1.477-1.511c0.833,0,1.468,0.677,1.468,1.511V8.05c0,0.199-0.078,0.437-0.156,0.636l-18.153,40.369h52.629
		L21.661,8.686c-0.077-0.199-0.159-0.437-0.159-0.636V-4.253c0-0.834,0.64-1.511,1.477-1.511c0.836,0,1.468,0.677,1.468,1.511V7.73
		l19.031,42.203c0.201,0.476,0.201,0.993-0.078,1.428C43.158,51.762,42.682,52,42.206,52z"/>
	<path fill="#C7C7C7" d="M27.634-8.233H-0.514c-0.836,0-1.513-0.636-1.513-1.473c0-0.836,0.677-1.472,1.513-1.472h28.11
		c0.837,0,1.509,0.636,1.509,1.472C29.105-8.869,28.434-8.233,27.634-8.233z"/>
	<path fill="#8D81AC" d="M28.708-26.307c0,3.146-2.547,5.693-5.693,5.693c-3.146,0-5.688-2.547-5.688-5.693S19.869-32,23.015-32
		C26.161-32,28.708-29.453,28.708-26.307z"/>
	<path fill="#FFFFFF" d="M18.2,37.546c0,0.48-0.398,0.878-0.874,0.878c-0.479,0-0.878-0.397-0.878-0.878
		c0-0.476,0.398-0.873,0.878-0.873C17.802,36.636,18.2,37.029,18.2,37.546z"/>
	<g>
		<path fill="#8D81AC" d="M20.984,29.109c-1.115,0-2.066,0.914-2.066,2.071h4.097C23.015,30.023,22.101,29.109,20.984,29.109z"/>
		<path fill="#FFFFFF" d="M20.984,33.207c1.116,0,2.071-0.911,2.071-2.067h-4.102C18.918,32.333,19.832,33.207,20.984,33.207z"/>
	</g>
</g>
</svg>
