<?xml version="1.0" encoding="utf-8"?>
<!-- Generator: Adobe Illustrator 15.1.0, SVG Export Plug-In . SVG Version: 6.00 Build 0)  -->
<!DOCTYPE svg PUBLIC "-//W3C//DTD SVG 1.1//EN" "http://www.w3.org/Graphics/SVG/1.1/DTD/svg11.dtd">
<svg version="1.1" id="Layer_1" xmlns="http://www.w3.org/2000/svg" xmlns:xlink="http://www.w3.org/1999/xlink" x="0px" y="0px"
	 width="90px" height="80px" viewBox="-31.5 -30 90 80" enable-background="new -31.5 -30 90 80" xml:space="preserve">
<g>
	<g>
		<path fill="#C7C7C7" d="M13.553,50L13.553,50C3.315,50-6.313,45.523-12.872,37.68c-12.211-14.563-10.313-36.361,4.246-48.57
			c6.215-5.195,14.066-8.076,22.14-8.076c10.237,0,19.866,4.474,26.424,12.322c5.913,7.053,8.758,16,7.96,25.176
			c-0.793,9.176-5.117,17.477-12.167,23.43C29.512,47.117,21.625,50,13.553,50z M13.514-15.971c-7.395,0-14.559,2.615-20.246,7.355
			C-20.04,2.568-21.748,22.438-10.599,35.742c5.993,7.133,14.789,11.227,24.113,11.227l0,0c7.392,0,14.557-2.617,20.245-7.36
			c6.445-5.382,10.39-12.999,11.108-21.382c0.719-8.379-1.859-16.529-7.242-22.975C31.633-11.877,22.875-15.971,13.514-15.971z"/>
	</g>
	<g>
		<path fill="#C7C7C7" d="M13.553-24.541c-0.832,0-1.519-0.682-1.519-1.516v-2.426c0-0.836,0.688-1.518,1.519-1.518
			s1.515,0.682,1.515,1.518v2.463C15.033-25.186,14.385-24.541,13.553-24.541z"/>
	</g>
	<g>
		<path fill="#C7C7C7" d="M27.806-22c-0.188,0-0.341-0.037-0.532-0.076c-0.757-0.266-1.171-1.137-0.906-1.934l0.832-2.313
			c0.266-0.758,1.138-1.176,1.934-0.91c0.759,0.266,1.177,1.137,0.911,1.934l-0.832,2.313C28.984-22.379,28.376-22,27.806-22z"/>
	</g>
	<g>
		<path fill="#C7C7C7" d="M40.281-14.758c-0.343,0-0.684-0.115-0.949-0.342c-0.644-0.531-0.723-1.479-0.191-2.123l1.595-1.896
			c0.53-0.645,1.479-0.719,2.125-0.189c0.644,0.531,0.718,1.479,0.187,2.123l-1.593,1.896
			C41.153-14.947,40.735-14.758,40.281-14.758z"/>
	</g>
	<g>
		<path fill="#C7C7C7" d="M49.57-3.648c-0.531,0-1.022-0.266-1.288-0.76c-0.418-0.719-0.152-1.629,0.57-2.047l2.155-1.213
			C51.73-8.086,52.641-7.82,53.055-7.1c0.422,0.721,0.156,1.631-0.565,2.047l-2.161,1.215C50.103-3.725,49.837-3.648,49.57-3.648z"
			/>
	</g>
	<g>
		<path fill="#C7C7C7" d="M54.461,9.963c-0.718,0-1.367-0.531-1.477-1.252c-0.156-0.796,0.414-1.591,1.211-1.744l2.427-0.418
			c0.796-0.15,1.593,0.418,1.745,1.215c0.148,0.795-0.418,1.592-1.215,1.744l-2.426,0.416C54.648,9.963,54.536,9.963,54.461,9.963z"
			/>
	</g>
	<g>
		<path fill="#C7C7C7" d="M56.852,24.863c-0.077,0-0.19,0-0.266-0.039l-2.429-0.457c-0.798-0.148-1.364-0.906-1.212-1.742
			c0.148-0.797,0.907-1.367,1.743-1.211l2.429,0.453c0.794,0.152,1.359,0.91,1.212,1.742C58.215,24.332,57.57,24.863,56.852,24.863z
			"/>
	</g>
	<g>
		<path fill="#C7C7C7" d="M51.539,39.234c-0.266,0-0.531-0.078-0.757-0.23l-2.161-1.25c-0.723-0.418-0.949-1.328-0.531-2.047
			c0.418-0.723,1.329-0.949,2.051-0.531l2.121,1.25c0.723,0.418,0.949,1.328,0.531,2.051C52.563,38.969,52.07,39.234,51.539,39.234z
			"/>
	</g>
	<g>
		<path fill="#8D81AC" d="M-24.818,38.625c-0.531,0-1.023-0.267-1.289-0.758c-0.414-0.719-0.148-1.633,0.57-2.047l2.16-1.212
			c0.723-0.421,1.628-0.156,2.046,0.567c0.418,0.723,0.153,1.629-0.566,2.047l-2.164,1.215
			C-24.326,38.547-24.552,38.625-24.818,38.625z"/>
	</g>
	<g>
		<path fill="#8D81AC" d="M-29.896,24.14c-0.722,0-1.367-0.53-1.48-1.25c-0.113-0.796,0.418-1.593,1.215-1.702l2.425-0.422
			c0.793-0.109,1.59,0.422,1.708,1.215c0.113,0.797-0.418,1.594-1.215,1.707l-2.426,0.414C-29.747,24.14-29.821,24.14-29.896,24.14z
			"/>
	</g>
	<g>
		<path fill="#8D81AC" d="M-27.278,9.279c-0.078,0-0.191,0-0.266-0.037l-2.43-0.455c-0.796-0.152-1.363-0.949-1.21-1.744
			c0.148-0.797,0.906-1.365,1.742-1.213l2.43,0.455c0.793,0.15,1.359,0.947,1.211,1.744C-25.954,8.787-26.56,9.279-27.278,9.279z"/>
	</g>
	<g>
		<path fill="#8D81AC" d="M-22.162-4.256c-0.265,0-0.531-0.076-0.758-0.227l-2.125-1.252c-0.719-0.418-0.946-1.365-0.532-2.047
			c0.418-0.721,1.368-0.949,2.047-0.531l2.125,1.25c0.719,0.418,0.945,1.365,0.531,2.049C-21.138-4.482-21.63-4.256-22.162-4.256z"
			/>
	</g>
	<g>
		<path fill="#8D81AC" d="M-12.685-15.176c-0.414,0-0.871-0.189-1.172-0.568l-1.554-1.934c-0.531-0.645-0.422-1.592,0.226-2.123
			c0.641-0.531,1.594-0.418,2.122,0.227l1.554,1.934c0.532,0.645,0.418,1.594-0.226,2.123C-12.04-15.289-12.38-15.176-12.685-15.176
			z"/>
	</g>
	<g>
		<path fill="#C7C7C7" d="M-0.06-22.229c-0.605,0-1.211-0.379-1.402-1.023l-0.793-2.35c-0.266-0.758,0.148-1.631,0.906-1.896
			s1.632,0.152,1.898,0.91l0.797,2.352c0.265,0.758-0.156,1.629-0.914,1.895C0.245-22.266,0.093-22.229-0.06-22.229z"/>
	</g>
	<g>
		<path fill="#8D81AC" d="M1.421,2.568c-0.418,0-0.832-0.189-1.137-0.531l-3.945-4.701C-4.193-3.309-4.115-4.256-3.47-4.787
			c0.645-0.531,1.59-0.455,2.121,0.189l3.945,4.701C3.128,0.748,3.05,1.697,2.409,2.229C2.104,2.455,1.761,2.568,1.421,2.568z"/>
	</g>
	<g>
		<path fill="#FFFFFF" d="M15.182,24.824c-5.156,0.91-10.046-2.539-10.956-7.66c-0.91-5.156,2.542-10.045,7.66-10.955
			c5.154-0.91,10.045,2.539,10.954,7.658C23.751,19.023,20.297,23.914,15.182,24.824z"/>
		<path fill="#C7C7C7" d="M13.514,26.453c-5.347,0-9.855-3.828-10.769-9.063c-0.492-2.879,0.156-5.799,1.82-8.188
			c1.672-2.389,4.172-3.98,7.055-4.512c0.644-0.113,1.25-0.15,1.894-0.15c5.346,0,9.857,3.828,10.767,9.061
			c0.492,2.882-0.152,5.801-1.82,8.188c-1.668,2.391-4.171,3.984-7.052,4.516C14.803,26.418,14.159,26.453,13.514,26.453z
			 M13.553,7.574c-0.457,0-0.91,0.037-1.402,0.113c-2.086,0.379-3.906,1.516-5.156,3.26c-1.215,1.744-1.708,3.83-1.328,5.951
			C6.347,20.73,9.612,23.5,13.48,23.5c0.452,0,0.905-0.039,1.397-0.117c2.084-0.379,3.904-1.516,5.154-3.258
			c1.216-1.746,1.711-3.832,1.329-5.953C20.681,10.342,17.418,7.574,13.553,7.574z"/>
	</g>
</g>
</svg>
