<svg xmlns="http://www.w3.org/2000/svg" xmlns:xlink="http://www.w3.org/1999/xlink" width="111" height="64" viewBox="41.956 22 111 64"><path fill="#F9F9F9" d="M43.457 23.501h72.561v10.01H43.457z"/><defs><path id="a" d="M41.956 22h111v64.054h-111z"/></defs><clipPath id="b"><use xlink:href="#a" overflow="visible"/></clipPath><path clip-path="url(#b)" fill="none" stroke="#C7C7C7" stroke-width="3.002" stroke-linejoin="round" stroke-miterlimit="10" d="M43.457 23.501h73.058v61.051H43.457z"/><defs><path id="c" d="M41.956 22h111v64.054h-111z"/></defs><clipPath id="d"><use xlink:href="#c" overflow="visible"/></clipPath><path clip-path="url(#d)" fill="none" stroke="#C7C7C7" stroke-width="3.002" stroke-linejoin="round" stroke-miterlimit="10" d="M42.957 33.512h73.061"/><defs><path id="e" d="M41.956 22h111v64.054h-111z"/></defs><clipPath id="f"><use xlink:href="#e" overflow="visible"/></clipPath><path clip-path="url(#f)" fill="#C7C7C7" d="M52.017 28.587c0 .902-.732 1.632-1.634 1.632-.905 0-1.637-.73-1.637-1.632 0-.904.732-1.639 1.637-1.639.902 0 1.634.735 1.634 1.639"/><defs><path id="g" d="M41.956 22h111v64.054h-111z"/></defs><clipPath id="h"><use xlink:href="#g" overflow="visible"/></clipPath><path clip-path="url(#h)" fill="#8D81AC" d="M57.023 28.587a1.635 1.635 0 1 1-3.27-.007 1.635 1.635 0 0 1 3.27.007"/><defs><path id="i" d="M41.956 22h111v64.054h-111z"/></defs><clipPath id="j"><use xlink:href="#i" overflow="visible"/></clipPath><path clip-path="url(#j)" fill="#C7C7C7" d="M62.024 28.587c0 .902-.731 1.632-1.634 1.632a1.637 1.637 0 0 1 0-3.271c.902 0 1.634.735 1.634 1.639"/><defs><path id="k" d="M41.956 22h111v64.054h-111z"/></defs><clipPath id="l"><use xlink:href="#k" overflow="visible"/></clipPath><path clip-path="url(#l)" fill="none" stroke="#C7C7C7" stroke-width="3.002" stroke-linejoin="round" stroke-miterlimit="10" d="M50.464 41.517h24.021v16.014H50.464z"/><defs><path id="m" d="M41.956 22h111v64.054h-111z"/></defs><clipPath id="n"><use xlink:href="#m" overflow="visible"/></clipPath><path clip-path="url(#n)" fill="none" stroke="#C7C7C7" stroke-width="3.002" stroke-linejoin="round" stroke-miterlimit="10" d="M84.49 41.517h24.022v16.014H84.49z"/><defs><path id="o" d="M41.956 22h111v64.054h-111z"/></defs><clipPath id="p"><use xlink:href="#o" overflow="visible"/></clipPath><path clip-path="url(#p)" fill="none" stroke="#8D81AC" stroke-width="3.002" stroke-linecap="round" stroke-linejoin="round" stroke-miterlimit="10" d="M50.963 66.538h23.018"/><defs><path id="q" d="M41.956 22h111v64.054h-111z"/></defs><clipPath id="r"><use xlink:href="#q" overflow="visible"/></clipPath><path clip-path="url(#r)" fill="none" stroke="#8D81AC" stroke-width="3.002" stroke-linecap="round" stroke-linejoin="round" stroke-miterlimit="10" d="M50.963 75.542h23.018"/><defs><path id="s" d="M41.956 22h111v64.054h-111z"/></defs><clipPath id="t"><use xlink:href="#s" overflow="visible"/></clipPath><path clip-path="url(#t)" fill="none" stroke="#8D81AC" stroke-width="3.002" stroke-linecap="round" stroke-linejoin="round" stroke-miterlimit="10" d="M84.992 66.538h23.022"/><defs><path id="u" d="M41.956 22h111v64.054h-111z"/></defs><clipPath id="v"><use xlink:href="#u" overflow="visible"/></clipPath><path clip-path="url(#v)" fill="none" stroke="#8D81AC" stroke-width="3.002" stroke-linecap="round" stroke-linejoin="round" stroke-miterlimit="10" d="M84.992 75.542h23.022"/><defs><path id="w" d="M41.956 22h111v64.054h-111z"/></defs><clipPath id="x"><use xlink:href="#w" overflow="visible"/></clipPath><path clip-path="url(#x)" fill="#F9F9F9" d="M151.639 76.14l-9.783-9.786a4.91 4.91 0 0 0-.479-.392c5.201-8.307 4.213-19.415-3.003-26.632-4.072-4.063-9.471-6.302-15.216-6.302-5.752 0-11.15 2.239-15.216 6.302-4.063 4.062-6.3 9.465-6.3 15.216 0 5.755 2.236 11.153 6.3 15.217 4.065 4.063 9.464 6.305 15.216 6.305 4.356 0 8.514-1.295 12.041-3.69.094.115.182.237.285.344l9.789 9.787a4.453 4.453 0 0 0 3.178 1.316c1.207 0 2.333-.47 3.188-1.316a4.457 4.457 0 0 0 1.316-3.185 4.452 4.452 0 0 0-1.316-3.184m-28.48-9.083a12.42 12.42 0 0 1-8.845-3.662c-4.883-4.879-4.883-12.814 0-17.696a12.422 12.422 0 0 1 8.845-3.661c3.34 0 6.48 1.301 8.845 3.661 4.876 4.882 4.876 12.817 0 17.693a12.434 12.434 0 0 1-8.845 3.665"/><defs><path id="y" d="M41.956 22h111v64.054h-111z"/></defs><clipPath id="z"><use xlink:href="#y" overflow="visible"/></clipPath><path clip-path="url(#z)" fill="#8D81AC" d="M123.159 73.062a18.401 18.401 0 0 1-13.096-5.42c-7.216-7.225-7.216-18.969 0-26.189a18.41 18.41 0 0 1 13.096-5.422c4.944 0 9.599 1.927 13.086 5.422 7.222 7.221 7.222 18.965 0 26.189-3.488 3.497-8.142 5.42-13.086 5.42m0-34.029a15.41 15.41 0 0 0-10.975 4.544c-6.046 6.048-6.046 15.886 0 21.94a15.411 15.411 0 0 0 10.975 4.542c4.138 0 8.035-1.611 10.969-4.542 6.049-6.055 6.049-15.893 0-21.94a15.425 15.425 0 0 0-10.969-4.544"/><defs><path id="A" d="M41.956 22h111v64.054h-111z"/></defs><clipPath id="B"><use xlink:href="#A" overflow="visible"/></clipPath><path clip-path="url(#B)" fill="#C7C7C7" d="M147.454 79.824c-.384 0-.769-.145-1.057-.438l-7.791-7.788a1.498 1.498 0 0 1 0-2.114 1.497 1.497 0 0 1 2.127 0l7.784 7.775a1.52 1.52 0 0 1 0 2.127 1.49 1.49 0 0 1-1.063.438"/></svg>