<svg xmlns="http://www.w3.org/2000/svg" width="71" height="71" viewBox="-22 -25.5 71 71"><path fill="#C7C7C7" d="M13.5 45.5C-6.084 45.5-22 29.584-22 10s15.916-35.5 35.5-35.5S49-9.584 49 10 33.084 45.5 13.5 45.5zm0-68.005C-4.434-22.505-19.005-7.936-19.005 10c0 17.938 14.571 32.505 32.505 32.505S46.008 27.938 46.008 10c0-17.936-14.606-32.505-32.508-32.505z"/><path fill="#FFF" d="M-14.529 11.515A1.51 1.51 0 0 1-16.044 10c0-16.287 13.26-29.544 29.544-29.544.843 0 1.515.672 1.515 1.515 0 .841-.672 1.514-1.515 1.514-14.637 0-26.549 11.912-26.549 26.548 0 .808-.672 1.482-1.48 1.482zM13.5 39.544a1.508 1.508 0 0 1-1.515-1.515c0-.843.673-1.516 1.515-1.516 14.641 0 26.552-11.911 26.552-26.546 0-.843.673-1.515 1.512-1.515.843 0 1.516.672 1.516 1.515-.036 16.32-13.293 29.577-29.58 29.577z"/><path fill="#C7C7C7" d="M13.5 11.515A1.509 1.509 0 0 1 11.985 10V-9.651c0-.841.673-1.514 1.515-1.514.843 0 1.515.673 1.515 1.514V10c-.035.841-.672 1.515-1.515 1.515z"/><path fill="#8D81AC" d="M13.5 39.544c-16.284 0-29.544-13.257-29.544-29.544a1.51 1.51 0 0 1 1.515-1.515c.839 0 1.512.674 1.512 1.515 0 14.637 11.912 26.549 26.552 26.549.842 0 1.515.673 1.515 1.515-.07.807-.707 1.48-1.55 1.48zm28.029-28.029A1.508 1.508 0 0 1 40.017 10c0-14.637-11.912-26.549-26.549-26.549a1.512 1.512 0 0 1-1.519-1.515c0-.84.676-1.513 1.519-1.513 16.287 0 29.544 13.257 29.544 29.544a1.471 1.471 0 0 1-1.483 1.548zm-28.029 0A1.509 1.509 0 0 1 11.985 10V-3.124c0-.841.673-1.513 1.515-1.513.843 0 1.515.672 1.515 1.513V10c-.035.841-.672 1.515-1.515 1.515z"/></svg>