<svg xmlns="http://www.w3.org/2000/svg" width="61" height="84" viewBox="-17 -32 61 84"><path fill="#8D81AC" d="M-15.123 51.163h57.329L32.53 30.819H-5.448z"/><path fill="#FFF" d="M8.005 4.028V8.05L-9.312 46.783h4.02L12.025 8.05V4.028z"/><path fill="#8D81AC" d="M16.366-.629a2.811 2.811 0 0 1-2.828 2.826 2.812 2.812 0 0 1-2.826-2.826 2.81 2.81 0 0 1 2.826-2.826 2.81 2.81 0 0 1 2.828 2.826z"/><path fill="#C7C7C7" d="M42.206 52h-57.329c-.521 0-.997-.238-1.276-.677s-.279-.956-.082-1.432L2.55 7.691V-4.253c0-.834.64-1.511 1.477-1.511.833 0 1.468.677 1.468 1.511V8.05c0 .199-.078.437-.156.636l-18.153 40.369h52.629L21.661 8.686c-.077-.199-.159-.437-.159-.636V-4.253c0-.834.64-1.511 1.477-1.511.836 0 1.468.677 1.468 1.511V7.73l19.031 42.203c.201.476.201.993-.078 1.428-.242.401-.718.639-1.194.639zM27.634-8.233H-.514c-.836 0-1.513-.636-1.513-1.473 0-.836.677-1.472 1.513-1.472h28.11c.837 0 1.509.636 1.509 1.472 0 .837-.671 1.473-1.471 1.473z"/><path fill="#8D81AC" d="M28.708-26.307a5.69 5.69 0 0 1-5.693 5.693c-3.146 0-5.688-2.547-5.688-5.693S19.869-32 23.015-32a5.69 5.69 0 0 1 5.693 5.693z"/><path fill="#FFF" d="M18.2 37.546c0 .48-.398.878-.874.878a.884.884 0 0 1-.878-.878c0-.476.398-.873.878-.873.476-.037.874.356.874.873z"/><path fill="#8D81AC" d="M20.984 29.109a2.077 2.077 0 0 0-2.066 2.071h4.097c0-1.157-.914-2.071-2.031-2.071z"/><path fill="#FFF" d="M20.984 33.207a2.078 2.078 0 0 0 2.071-2.067h-4.102c-.035 1.193.879 2.067 2.031 2.067z"/></svg>